<mxfile host="app.diagrams.net" modified="2024-07-19T09:30:49.728Z" agent="Mozilla/5.0 (Windows NT 10.0; Win64; x64) AppleWebKit/537.36 (KHTML, like Gecko) Chrome/126.0.0.0 Safari/537.36 Edg/126.0.0.0" etag="n6EsL8jg1R8FI-hwKH-N" version="24.7.1" type="device">
  <diagram name="Page-1" id="S-Me7KEt7cq_m3eYWkcy">
    <mxGraphModel dx="1386" dy="905" grid="1" gridSize="10" guides="1" tooltips="1" connect="1" arrows="1" fold="1" page="1" pageScale="1" pageWidth="827" pageHeight="1169" math="0" shadow="0">
      <root>
        <mxCell id="0" />
        <mxCell id="1" parent="0" />
        <mxCell id="ia9dPJGCK-JBG85LSqjx-8" style="edgeStyle=orthogonalEdgeStyle;rounded=0;orthogonalLoop=1;jettySize=auto;html=1;entryX=0.5;entryY=0;entryDx=0;entryDy=0;" edge="1" parent="1" source="ia9dPJGCK-JBG85LSqjx-1" target="ia9dPJGCK-JBG85LSqjx-3">
          <mxGeometry relative="1" as="geometry" />
        </mxCell>
        <mxCell id="ia9dPJGCK-JBG85LSqjx-1" value="START" style="ellipse;whiteSpace=wrap;html=1;" vertex="1" parent="1">
          <mxGeometry x="340" y="100" width="120" height="80" as="geometry" />
        </mxCell>
        <mxCell id="ia9dPJGCK-JBG85LSqjx-2" value="END" style="ellipse;whiteSpace=wrap;html=1;" vertex="1" parent="1">
          <mxGeometry x="550" y="700" width="120" height="80" as="geometry" />
        </mxCell>
        <mxCell id="ia9dPJGCK-JBG85LSqjx-9" style="edgeStyle=orthogonalEdgeStyle;rounded=0;orthogonalLoop=1;jettySize=auto;html=1;" edge="1" parent="1" source="ia9dPJGCK-JBG85LSqjx-3" target="ia9dPJGCK-JBG85LSqjx-5">
          <mxGeometry relative="1" as="geometry" />
        </mxCell>
        <mxCell id="ia9dPJGCK-JBG85LSqjx-3" value="i = 0" style="rounded=0;whiteSpace=wrap;html=1;" vertex="1" parent="1">
          <mxGeometry x="340" y="230" width="120" height="60" as="geometry" />
        </mxCell>
        <mxCell id="ia9dPJGCK-JBG85LSqjx-15" style="edgeStyle=orthogonalEdgeStyle;rounded=0;orthogonalLoop=1;jettySize=auto;html=1;exitX=1;exitY=0.5;exitDx=0;exitDy=0;entryX=0.558;entryY=-0.025;entryDx=0;entryDy=0;entryPerimeter=0;" edge="1" parent="1" source="ia9dPJGCK-JBG85LSqjx-5" target="ia9dPJGCK-JBG85LSqjx-2">
          <mxGeometry relative="1" as="geometry">
            <mxPoint x="615" y="690" as="targetPoint" />
          </mxGeometry>
        </mxCell>
        <mxCell id="ia9dPJGCK-JBG85LSqjx-5" value="IF&lt;div&gt;i &amp;lt; 10&lt;/div&gt;&lt;div&gt;?&lt;/div&gt;" style="rhombus;whiteSpace=wrap;html=1;" vertex="1" parent="1">
          <mxGeometry x="335" y="330" width="130" height="110" as="geometry" />
        </mxCell>
        <mxCell id="ia9dPJGCK-JBG85LSqjx-14" style="edgeStyle=orthogonalEdgeStyle;rounded=0;orthogonalLoop=1;jettySize=auto;html=1;" edge="1" parent="1" source="ia9dPJGCK-JBG85LSqjx-6">
          <mxGeometry relative="1" as="geometry">
            <mxPoint x="410" y="580" as="targetPoint" />
          </mxGeometry>
        </mxCell>
        <mxCell id="ia9dPJGCK-JBG85LSqjx-6" value="DISPLAY &quot;Hello World&quot;" style="shape=parallelogram;perimeter=parallelogramPerimeter;whiteSpace=wrap;html=1;fixedSize=1;" vertex="1" parent="1">
          <mxGeometry x="260" y="490" width="300" height="60" as="geometry" />
        </mxCell>
        <mxCell id="ia9dPJGCK-JBG85LSqjx-10" value="YES" style="text;html=1;align=center;verticalAlign=middle;whiteSpace=wrap;rounded=0;" vertex="1" parent="1">
          <mxGeometry x="400" y="450" width="60" height="30" as="geometry" />
        </mxCell>
        <mxCell id="ia9dPJGCK-JBG85LSqjx-11" style="edgeStyle=orthogonalEdgeStyle;rounded=0;orthogonalLoop=1;jettySize=auto;html=1;entryX=0.47;entryY=-0.017;entryDx=0;entryDy=0;entryPerimeter=0;" edge="1" parent="1" source="ia9dPJGCK-JBG85LSqjx-5" target="ia9dPJGCK-JBG85LSqjx-6">
          <mxGeometry relative="1" as="geometry" />
        </mxCell>
        <mxCell id="ia9dPJGCK-JBG85LSqjx-17" style="edgeStyle=orthogonalEdgeStyle;rounded=0;orthogonalLoop=1;jettySize=auto;html=1;" edge="1" parent="1" source="ia9dPJGCK-JBG85LSqjx-12">
          <mxGeometry relative="1" as="geometry">
            <mxPoint x="150" y="320" as="targetPoint" />
          </mxGeometry>
        </mxCell>
        <mxCell id="ia9dPJGCK-JBG85LSqjx-12" value="i = i + 1" style="rounded=0;whiteSpace=wrap;html=1;" vertex="1" parent="1">
          <mxGeometry x="345" y="584.5" width="120" height="60" as="geometry" />
        </mxCell>
        <mxCell id="ia9dPJGCK-JBG85LSqjx-16" value="NO" style="text;html=1;align=center;verticalAlign=middle;resizable=0;points=[];autosize=1;strokeColor=none;fillColor=none;" vertex="1" parent="1">
          <mxGeometry x="480" y="360" width="40" height="30" as="geometry" />
        </mxCell>
      </root>
    </mxGraphModel>
  </diagram>
</mxfile>
